<svg xmlns:xlink="http://www.w3.org/1999/xlink" version="1.1" class="highcharts-root" style="font-family: -apple-system, BlinkMacSystemFont, &quot;Segoe UI&quot;, Roboto, Helvetica, Arial, &quot;Apple Color Emoji&quot;, &quot;Segoe UI Emoji&quot;, &quot;Segoe UI Symbol&quot;, sans-serif; font-size: 1rem;" xmlns="http://www.w3.org/2000/svg" width="1057" height="492" viewBox="0 0 1057 492" aria-label="Interactive chart" aria-hidden="false"><desc aria-hidden="true">Created with Highcharts 12.3.0</desc><defs aria-hidden="true"><filter id="highcharts-drop-shadow-187"><feDropShadow dx="1" dy="1" flood-color="#000000" flood-opacity="0.75" stdDeviation="2.5"></feDropShadow></filter><clipPath id="highcharts-2rqi4w5-22252-"><rect x="0" y="0" width="362" height="880" fill="none"></rect></clipPath><filter id="highcharts-drop-shadow-187-offsetx--1-offsety--1"><feDropShadow dx="-1" dy="-1" flood-color="#000000" flood-opacity="0.75" stdDeviation="2.5"></feDropShadow></filter><clipPath id="highcharts-2rqi4w5-22253-"><rect x="166" y="60" width="881" height="362" fill="none"></rect></clipPath></defs><rect fill="#ffffff" class="highcharts-background" filter="none" x="0" y="0" width="1057" height="492" rx="0" ry="0" aria-hidden="true"></rect><rect fill="none" class="highcharts-plot-background" x="166" y="60" width="881" height="362" filter="none" aria-hidden="true"></rect><g class="highcharts-pane-group" data-z-index="0" aria-hidden="true"></g><g class="highcharts-grid highcharts-xaxis-grid" data-z-index="1" aria-hidden="true"><path fill="none" stroke="#e6e6e6" stroke-width="0" stroke-dasharray="none" data-z-index="1" class="highcharts-grid-line" d="M 166 241.5 L 1047 241.5" opacity="1"></path><path fill="none" stroke="#e6e6e6" stroke-width="0" stroke-dasharray="none" data-z-index="1" class="highcharts-grid-line" d="M 166 422.5 L 1047 422.5" opacity="1"></path><path fill="none" stroke="#e6e6e6" stroke-width="0" stroke-dasharray="none" data-z-index="1" class="highcharts-grid-line" d="M 166 60.5 L 1047 60.5" opacity="1"></path></g><rect fill="none" class="highcharts-plot-border" data-z-index="1" stroke="#cccccc" stroke-width="0" x="166" y="60" width="881" height="362" aria-hidden="true"></rect><g class="highcharts-grid highcharts-yaxis-grid" data-z-index="1" aria-hidden="true"><path fill="none" stroke="#e6e6e6" stroke-width="1" stroke-dasharray="none" data-z-index="1" class="highcharts-grid-line" d="M 166.5 60 L 166.5 422" opacity="1"></path><path fill="none" stroke="#e6e6e6" stroke-width="1" stroke-dasharray="none" data-z-index="1" class="highcharts-grid-line" d="M 229.5 60 L 229.5 422" opacity="1"></path><path fill="none" stroke="#e6e6e6" stroke-width="1" stroke-dasharray="none" data-z-index="1" class="highcharts-grid-line" d="M 292.5 60 L 292.5 422" opacity="1"></path><path fill="none" stroke="#e6e6e6" stroke-width="1" stroke-dasharray="none" data-z-index="1" class="highcharts-grid-line" d="M 356.5 60 L 356.5 422" opacity="1"></path><path fill="none" stroke="#e6e6e6" stroke-width="1" stroke-dasharray="none" data-z-index="1" class="highcharts-grid-line" d="M 419.5 60 L 419.5 422" opacity="1"></path><path fill="none" stroke="#e6e6e6" stroke-width="1" stroke-dasharray="none" data-z-index="1" class="highcharts-grid-line" d="M 483.5 60 L 483.5 422" opacity="1"></path><path fill="none" stroke="#e6e6e6" stroke-width="1" stroke-dasharray="none" data-z-index="1" class="highcharts-grid-line" d="M 546.5 60 L 546.5 422" opacity="1"></path><path fill="none" stroke="#e6e6e6" stroke-width="1" stroke-dasharray="none" data-z-index="1" class="highcharts-grid-line" d="M 610.5 60 L 610.5 422" opacity="1"></path><path fill="none" stroke="#e6e6e6" stroke-width="1" stroke-dasharray="none" data-z-index="1" class="highcharts-grid-line" d="M 673.5 60 L 673.5 422" opacity="1"></path><path fill="none" stroke="#e6e6e6" stroke-width="1" stroke-dasharray="none" data-z-index="1" class="highcharts-grid-line" d="M 737.5 60 L 737.5 422" opacity="1"></path><path fill="none" stroke="#e6e6e6" stroke-width="1" stroke-dasharray="none" data-z-index="1" class="highcharts-grid-line" d="M 800.5 60 L 800.5 422" opacity="1"></path><path fill="none" stroke="#e6e6e6" stroke-width="1" stroke-dasharray="none" data-z-index="1" class="highcharts-grid-line" d="M 863.5 60 L 863.5 422" opacity="1"></path><path fill="none" stroke="#e6e6e6" stroke-width="1" stroke-dasharray="none" data-z-index="1" class="highcharts-grid-line" d="M 927.5 60 L 927.5 422" opacity="1"></path><path fill="none" stroke="#e6e6e6" stroke-width="1" stroke-dasharray="none" data-z-index="1" class="highcharts-grid-line" d="M 990.5 60 L 990.5 422" opacity="1"></path></g><g class="highcharts-axis highcharts-xaxis" data-z-index="2" aria-hidden="true"><text x="26.203657150268555" data-z-index="7" text-anchor="middle" transform="translate(0,0) rotate(270 26.203657150268555 241)" class="highcharts-axis-title" style="font-size: 0.8em; fill: rgb(102, 102, 102);" y="241">Query</text><path fill="none" class="highcharts-axis-line" stroke="#FFFFFF" stroke-width="1" data-z-index="7" d="M 166.5 60 L 166.5 422"></path></g><g class="highcharts-axis highcharts-yaxis" data-z-index="2" aria-hidden="true"><text x="606.5" data-z-index="7" text-anchor="middle" transform="translate(0,0)" class="highcharts-axis-title" style="font-size: 0.8em; fill: rgb(102, 102, 102);" y="471.50027656555176">Median Duration (ms)</text><path fill="none" class="highcharts-axis-line" stroke="#333333" stroke-width="0" data-z-index="7" d="M 166 422 L 1047 422"></path></g><g class="highcharts-series-group" data-z-index="3" filter="none" aria-hidden="false"><g class="highcharts-series highcharts-series-0 highcharts-bar-series highcharts-color-0" data-z-index="0.1" opacity="1" transform="translate(166,60) rotate(90 259.5 621.5) scale(-1 1)" clip-path="url(#highcharts-2rqi4w5-22252-)" aria-hidden="false"><path fill="#074650" d="M 231.5 41.5 L 312.5 41.5 A 3 3 0 0 1 315.5 44.5 L 315.5 880.5 A 0 0 0 0 1 315.5 880.5 L 228.5 880.5 A 0 0 0 0 1 228.5 880.5 L 228.5 44.5 A 3 3 0 0 1 231.5 41.5 Z" stroke="#ffffff" stroke-width="1" opacity="1" filter="none" class="highcharts-point highcharts-color-0" tabindex="-1" role="img" aria-label="Star Schema, 1,322.4213451666333. Avg(median_duration_ms)." style="outline: none;"></path><path fill="#074650" d="M 50.5 394.5 L 131.5 394.5 A 3 3 0 0 1 134.5 397.5 L 134.5 880.5 A 0 0 0 0 1 134.5 880.5 L 47.5 880.5 A 0 0 0 0 1 47.5 880.5 L 47.5 397.5 A 3 3 0 0 1 50.5 394.5 Z" stroke="#ffffff" stroke-width="1" opacity="1" filter="none" class="highcharts-point highcharts-color-0" tabindex="-1" role="img" aria-label="Unified Star Schema, 766.7989282222445. Avg(median_duration_ms)." style="outline: none;"></path></g><g class="highcharts-markers highcharts-series-0 highcharts-bar-series highcharts-color-0" data-z-index="0.1" opacity="1" transform="translate(166,60) scale(1 1)" clip-path="none" aria-hidden="true"></g></g><text x="10" text-anchor="start" class="highcharts-title" data-z-index="4" style="font-size: 14px; font-weight: bold; fill: rgb(51, 51, 51);" text-align="left" y="21" transform-origin="10 17" transform="translate(0,0) scale(1 1)" aria-hidden="true">DAX Benchmark</text><text x="10" class="highcharts-subtitle" data-z-index="4" text-align="left" y="42" text-anchor="start" transform-origin="10 15" transform="translate(0,0) scale(1 1)" style="font-size: 12px; fill: rgb(102, 102, 102);" aria-hidden="true">By Query</text><text x="10" text-anchor="start" class="highcharts-caption" data-z-index="4" style="font-size: 0.8em; fill: rgb(102, 102, 102);" text-align="left" y="489" transform-origin="10 15" transform="translate(0,0) scale(1 1)" aria-hidden="true"></text><g class="highcharts-plot-lines-5" data-z-index="5" aria-hidden="true"><path fill="none" class="highcharts-plot-line " stroke="#333333" stroke-width="1" d="M 166.5 60 L 166.5 422"></path></g><g class="highcharts-datalabels-group" data-z-index="6" aria-hidden="true"></g><g class="highcharts-axis-labels highcharts-xaxis-labels" data-z-index="7" aria-hidden="true"><text x="151" text-anchor="end" transform="translate(0,0)" style="cursor: default; font-size: 0.8em; fill: rgb(51, 51, 51);" y="154" opacity="1">Star Schema</text><text x="151" text-anchor="end" transform="translate(0,0)" style="cursor: default; font-size: 0.8em; fill: rgb(51, 51, 51);" y="335" opacity="1">Unified Star Schema</text></g><g class="highcharts-axis-labels highcharts-yaxis-labels" data-z-index="7" aria-hidden="true"><text x="166" text-anchor="middle" transform="translate(0,0)" style="cursor: default; font-size: 0.8em; fill: rgb(51, 51, 51);" y="449" opacity="1">0</text><text x="229.44782788892" text-anchor="middle" transform="translate(0,0)" style="cursor: default; font-size: 0.8em; fill: rgb(51, 51, 51);" y="449" opacity="1">100</text><text x="292.89565577783" text-anchor="middle" transform="translate(0,0)" style="cursor: default; font-size: 0.8em; fill: rgb(51, 51, 51);" y="449" opacity="1">200</text><text x="356.34348366675" text-anchor="middle" transform="translate(0,0)" style="cursor: default; font-size: 0.8em; fill: rgb(51, 51, 51);" y="449" opacity="1">300</text><text x="419.79131155567" text-anchor="middle" transform="translate(0,0)" style="cursor: default; font-size: 0.8em; fill: rgb(51, 51, 51);" y="449" opacity="1">400</text><text x="483.23913944458" text-anchor="middle" transform="translate(0,0)" style="cursor: default; font-size: 0.8em; fill: rgb(51, 51, 51);" y="449" opacity="1">500</text><text x="546.6869673335" text-anchor="middle" transform="translate(0,0)" style="cursor: default; font-size: 0.8em; fill: rgb(51, 51, 51);" y="449" opacity="1">600</text><text x="610.13479522242" text-anchor="middle" transform="translate(0,0)" style="cursor: default; font-size: 0.8em; fill: rgb(51, 51, 51);" y="449" opacity="1">700</text><text x="673.58262311133" text-anchor="middle" transform="translate(0,0)" style="cursor: default; font-size: 0.8em; fill: rgb(51, 51, 51);" y="449" opacity="1">800</text><text x="737.03045100025" text-anchor="middle" transform="translate(0,0)" style="cursor: default; font-size: 0.8em; fill: rgb(51, 51, 51);" y="449" opacity="1">900</text><text x="800.47827888916" text-anchor="middle" transform="translate(0,0)" style="cursor: default; font-size: 0.8em; fill: rgb(51, 51, 51);" y="449" opacity="1">1000</text><text x="863.92610677808" text-anchor="middle" transform="translate(0,0)" style="cursor: default; font-size: 0.8em; fill: rgb(51, 51, 51);" y="449" opacity="1">1100</text><text x="927.373934667" text-anchor="middle" transform="translate(0,0)" style="cursor: default; font-size: 0.8em; fill: rgb(51, 51, 51);" y="449" opacity="1">1200</text><text x="990.82176255591" text-anchor="middle" transform="translate(0,0)" style="cursor: default; font-size: 0.8em; fill: rgb(51, 51, 51);" y="449" opacity="1">1300</text></g><g class="highcharts-control-points" data-z-index="99" clip-path="url(#highcharts-2rqi4w5-22253-)" aria-hidden="true"></g></svg>