<svg xmlns:xlink="http://www.w3.org/1999/xlink" version="1.1" class="highcharts-root" style="font-family: -apple-system, BlinkMacSystemFont, &quot;Segoe UI&quot;, Roboto, Helvetica, Arial, &quot;Apple Color Emoji&quot;, &quot;Segoe UI Emoji&quot;, &quot;Segoe UI Symbol&quot;, sans-serif; font-size: 1rem;" xmlns="http://www.w3.org/2000/svg" width="1057" height="492" viewBox="0 0 1057 492" aria-label="Interactive chart" aria-hidden="false"><desc aria-hidden="true">Created with Highcharts 12.3.0</desc><defs aria-hidden="true"><filter id="highcharts-drop-shadow-3"><feDropShadow dx="1" dy="1" flood-color="#000000" flood-opacity="0.75" stdDeviation="2.5"></feDropShadow></filter><clipPath id="highcharts-5x53uln-52-"><rect x="0" y="0" width="362" height="908" fill="none"></rect></clipPath><filter id="highcharts-drop-shadow-3-offsetx--1-offsety--1"><feDropShadow dx="-1" dy="-1" flood-color="#000000" flood-opacity="0.75" stdDeviation="2.5"></feDropShadow></filter><clipPath id="highcharts-5x53uln-53-"><rect x="138" y="60" width="909" height="362" fill="none"></rect></clipPath></defs><rect fill="#ffffff" class="highcharts-background" filter="none" x="0" y="0" width="1057" height="492" rx="0" ry="0" aria-hidden="true"></rect><rect fill="none" class="highcharts-plot-background" x="138" y="60" width="909" height="362" filter="none" aria-hidden="true"></rect><g class="highcharts-pane-group" data-z-index="0" aria-hidden="true"></g><g class="highcharts-grid highcharts-xaxis-grid" data-z-index="1" aria-hidden="true"><path fill="none" stroke="#e6e6e6" stroke-width="0" stroke-dasharray="none" data-z-index="1" class="highcharts-grid-line" d="M 138 241.5 L 1047 241.5" opacity="1"></path><path fill="none" stroke="#e6e6e6" stroke-width="0" stroke-dasharray="none" data-z-index="1" class="highcharts-grid-line" d="M 138 422.5 L 1047 422.5" opacity="1"></path><path fill="none" stroke="#e6e6e6" stroke-width="0" stroke-dasharray="none" data-z-index="1" class="highcharts-grid-line" d="M 138 60.5 L 1047 60.5" opacity="1"></path></g><rect fill="none" class="highcharts-plot-border" data-z-index="1" stroke="#cccccc" stroke-width="0" x="138" y="60" width="909" height="362" aria-hidden="true"></rect><g class="highcharts-grid highcharts-yaxis-grid" data-z-index="1" aria-hidden="true"><path fill="none" stroke="#e6e6e6" stroke-width="1" stroke-dasharray="none" data-z-index="1" class="highcharts-grid-line" d="M 138.5 60 L 138.5 422" opacity="1"></path><path fill="none" stroke="#e6e6e6" stroke-width="1" stroke-dasharray="none" data-z-index="1" class="highcharts-grid-line" d="M 203.5 60 L 203.5 422" opacity="1"></path><path fill="none" stroke="#e6e6e6" stroke-width="1" stroke-dasharray="none" data-z-index="1" class="highcharts-grid-line" d="M 268.5 60 L 268.5 422" opacity="1"></path><path fill="none" stroke="#e6e6e6" stroke-width="1" stroke-dasharray="none" data-z-index="1" class="highcharts-grid-line" d="M 334.5 60 L 334.5 422" opacity="1"></path><path fill="none" stroke="#e6e6e6" stroke-width="1" stroke-dasharray="none" data-z-index="1" class="highcharts-grid-line" d="M 399.5 60 L 399.5 422" opacity="1"></path><path fill="none" stroke="#e6e6e6" stroke-width="1" stroke-dasharray="none" data-z-index="1" class="highcharts-grid-line" d="M 465.5 60 L 465.5 422" opacity="1"></path><path fill="none" stroke="#e6e6e6" stroke-width="1" stroke-dasharray="none" data-z-index="1" class="highcharts-grid-line" d="M 530.5 60 L 530.5 422" opacity="1"></path><path fill="none" stroke="#e6e6e6" stroke-width="1" stroke-dasharray="none" data-z-index="1" class="highcharts-grid-line" d="M 596.5 60 L 596.5 422" opacity="1"></path><path fill="none" stroke="#e6e6e6" stroke-width="1" stroke-dasharray="none" data-z-index="1" class="highcharts-grid-line" d="M 661.5 60 L 661.5 422" opacity="1"></path><path fill="none" stroke="#e6e6e6" stroke-width="1" stroke-dasharray="none" data-z-index="1" class="highcharts-grid-line" d="M 727.5 60 L 727.5 422" opacity="1"></path><path fill="none" stroke="#e6e6e6" stroke-width="1" stroke-dasharray="none" data-z-index="1" class="highcharts-grid-line" d="M 792.5 60 L 792.5 422" opacity="1"></path><path fill="none" stroke="#e6e6e6" stroke-width="1" stroke-dasharray="none" data-z-index="1" class="highcharts-grid-line" d="M 858.5 60 L 858.5 422" opacity="1"></path><path fill="none" stroke="#e6e6e6" stroke-width="1" stroke-dasharray="none" data-z-index="1" class="highcharts-grid-line" d="M 923.5 60 L 923.5 422" opacity="1"></path><path fill="none" stroke="#e6e6e6" stroke-width="1" stroke-dasharray="none" data-z-index="1" class="highcharts-grid-line" d="M 989.5 60 L 989.5 422" opacity="1"></path></g><g class="highcharts-axis highcharts-xaxis" data-z-index="2" aria-hidden="true"><path fill="none" class="highcharts-axis-line" stroke="#FFFFFF" stroke-width="1" data-z-index="7" d="M 138.5 60 L 138.5 422"></path></g><g class="highcharts-axis highcharts-yaxis" data-z-index="2" aria-hidden="true"><text x="592.5" data-z-index="7" text-anchor="middle" transform="translate(0,0)" class="highcharts-axis-title" style="font-size: 0.8em; fill: rgb(102, 102, 102);" y="471.50027656555176">Median Duration (ms)</text><path fill="none" class="highcharts-axis-line" stroke="#333333" stroke-width="0" data-z-index="7" d="M 138 422 L 1047 422"></path></g><g class="highcharts-series-group" data-z-index="3" filter="none" aria-hidden="false"><g class="highcharts-series highcharts-series-0 highcharts-bar-series highcharts-color-0" data-z-index="0.1" opacity="1" transform="translate(138,60) rotate(90 273.5 635.5) scale(-1 1)" clip-path="url(#highcharts-5x53uln-52-)" aria-hidden="false"><path fill="#074650" d="M 231.5 43.5 L 312.5 43.5 A 3 3 0 0 1 315.5 46.5 L 315.5 908.5 A 0 0 0 0 1 315.5 908.5 L 228.5 908.5 A 0 0 0 0 1 228.5 908.5 L 228.5 46.5 A 3 3 0 0 1 231.5 43.5 Z" stroke="#ffffff" stroke-width="1" opacity="1" filter="none" class="highcharts-point highcharts-color-0" tabindex="-1" role="img" aria-label="Star Schema, 1,322.4213451666333. Avg(median_duration_ms)." style="outline: none;"></path><path fill="#074650" d="M 50.5 407.5 L 131.5 407.5 A 3 3 0 0 1 134.5 410.5 L 134.5 908.5 A 0 0 0 0 1 134.5 908.5 L 47.5 908.5 A 0 0 0 0 1 47.5 908.5 L 47.5 410.5 A 3 3 0 0 1 50.5 407.5 Z" stroke="#ffffff" stroke-width="1" opacity="1" filter="none" class="highcharts-point highcharts-color-0" tabindex="-1" role="img" aria-label="Unified Star Schema, 766.7989282222445. Avg(median_duration_ms)." style="outline: none;"></path></g><g class="highcharts-markers highcharts-series-0 highcharts-bar-series highcharts-color-0" data-z-index="0.1" opacity="1" transform="translate(138,60) scale(1 1)" clip-path="none" aria-hidden="true"></g></g><text x="10" text-anchor="start" class="highcharts-title" data-z-index="4" style="font-size: 14px; font-weight: bold; fill: rgb(51, 51, 51);" text-align="left" y="21" transform-origin="10 17" transform="translate(0,0) scale(1 1)" aria-hidden="true">DAX Benchmark</text><text x="10" class="highcharts-subtitle" data-z-index="4" text-align="left" y="42" text-anchor="start" transform-origin="10 15" transform="translate(0,0) scale(1 1)" style="font-size: 12px; fill: rgb(102, 102, 102);" aria-hidden="true">By Query</text><text x="10" text-anchor="start" class="highcharts-caption" data-z-index="4" style="font-size: 0.8em; fill: rgb(102, 102, 102);" text-align="left" y="489" transform-origin="10 15" transform="translate(0,0) scale(1 1)" aria-hidden="true"></text><g class="highcharts-plot-lines-5" data-z-index="5" aria-hidden="true"><path fill="none" class="highcharts-plot-line " stroke="#333333" stroke-width="1" d="M 138.5 60 L 138.5 422"></path></g><g class="highcharts-datalabels-group" data-z-index="6" aria-hidden="true"></g><g class="highcharts-axis-labels highcharts-xaxis-labels" data-z-index="7" aria-hidden="true"><text x="123" text-anchor="end" transform="translate(0,0)" style="cursor: default; font-size: 0.8em; fill: rgb(51, 51, 51);" y="154" opacity="1">Star Schema</text><text x="123" text-anchor="end" transform="translate(0,0)" style="cursor: default; font-size: 0.8em; fill: rgb(51, 51, 51);" y="335" opacity="1">Unified Star Schema</text></g><g class="highcharts-axis-labels highcharts-yaxis-labels" data-z-index="7" aria-hidden="true"><text x="138" text-anchor="middle" transform="translate(0,0)" style="cursor: default; font-size: 0.8em; fill: rgb(51, 51, 51);" y="449" opacity="1">0</text><text x="203.46433093192" text-anchor="middle" transform="translate(0,0)" style="cursor: default; font-size: 0.8em; fill: rgb(51, 51, 51);" y="449" opacity="1">100</text><text x="268.92866186385" text-anchor="middle" transform="translate(0,0)" style="cursor: default; font-size: 0.8em; fill: rgb(51, 51, 51);" y="449" opacity="1">200</text><text x="334.39299279577" text-anchor="middle" transform="translate(0,0)" style="cursor: default; font-size: 0.8em; fill: rgb(51, 51, 51);" y="449" opacity="1">300</text><text x="399.8573237277" text-anchor="middle" transform="translate(0,0)" style="cursor: default; font-size: 0.8em; fill: rgb(51, 51, 51);" y="449" opacity="1">400</text><text x="465.32165465962" text-anchor="middle" transform="translate(0,0)" style="cursor: default; font-size: 0.8em; fill: rgb(51, 51, 51);" y="449" opacity="1">500</text><text x="530.78598559154" text-anchor="middle" transform="translate(0,0)" style="cursor: default; font-size: 0.8em; fill: rgb(51, 51, 51);" y="449" opacity="1">600</text><text x="596.25031652347" text-anchor="middle" transform="translate(0,0)" style="cursor: default; font-size: 0.8em; fill: rgb(51, 51, 51);" y="449" opacity="1">700</text><text x="661.71464745539" text-anchor="middle" transform="translate(0,0)" style="cursor: default; font-size: 0.8em; fill: rgb(51, 51, 51);" y="449" opacity="1">800</text><text x="727.17897838732" text-anchor="middle" transform="translate(0,0)" style="cursor: default; font-size: 0.8em; fill: rgb(51, 51, 51);" y="449" opacity="1">900</text><text x="792.64330931924" text-anchor="middle" transform="translate(0,0)" style="cursor: default; font-size: 0.8em; fill: rgb(51, 51, 51);" y="449" opacity="1">1000</text><text x="858.10764025116" text-anchor="middle" transform="translate(0,0)" style="cursor: default; font-size: 0.8em; fill: rgb(51, 51, 51);" y="449" opacity="1">1100</text><text x="923.57197118309" text-anchor="middle" transform="translate(0,0)" style="cursor: default; font-size: 0.8em; fill: rgb(51, 51, 51);" y="449" opacity="1">1200</text><text x="989.03630211501" text-anchor="middle" transform="translate(0,0)" style="cursor: default; font-size: 0.8em; fill: rgb(51, 51, 51);" y="449" opacity="1">1300</text></g><g class="highcharts-control-points" data-z-index="99" clip-path="url(#highcharts-5x53uln-53-)" aria-hidden="true"></g></svg>