<svg xmlns:xlink="http://www.w3.org/1999/xlink" version="1.1" class="highcharts-root" style="font-family: -apple-system, BlinkMacSystemFont, &quot;Segoe UI&quot;, Roboto, Helvetica, Arial, &quot;Apple Color Emoji&quot;, &quot;Segoe UI Emoji&quot;, &quot;Segoe UI Symbol&quot;, sans-serif; font-size: 1rem;" xmlns="http://www.w3.org/2000/svg" width="1057" height="492" viewBox="0 0 1057 492" aria-label="Interactive chart" aria-hidden="false"><desc aria-hidden="true">Created with Highcharts 12.3.0</desc><defs aria-hidden="true"><filter id="highcharts-drop-shadow-10"><feDropShadow dx="1" dy="1" flood-color="#000000" flood-opacity="0.75" stdDeviation="2.5"></feDropShadow></filter><clipPath id="highcharts-5x53uln-203-"><rect x="0" y="0" width="362" height="908" fill="none"></rect></clipPath><filter id="highcharts-drop-shadow-10-offsetx--1-offsety--1"><feDropShadow dx="-1" dy="-1" flood-color="#000000" flood-opacity="0.75" stdDeviation="2.5"></feDropShadow></filter><clipPath id="highcharts-5x53uln-204-"><rect x="138" y="60" width="909" height="362" fill="none"></rect></clipPath></defs><rect fill="#ffffff" class="highcharts-background" filter="none" x="0" y="0" width="1057" height="492" rx="0" ry="0" aria-hidden="true"></rect><rect fill="none" class="highcharts-plot-background" x="138" y="60" width="909" height="362" filter="none" aria-hidden="true"></rect><g class="highcharts-pane-group" data-z-index="0" aria-hidden="true"></g><g class="highcharts-grid highcharts-xaxis-grid" data-z-index="1" aria-hidden="true"><path fill="none" stroke="#e6e6e6" stroke-width="0" stroke-dasharray="none" data-z-index="1" class="highcharts-grid-line" d="M 138 241.5 L 1047 241.5" opacity="1"></path><path fill="none" stroke="#e6e6e6" stroke-width="0" stroke-dasharray="none" data-z-index="1" class="highcharts-grid-line" d="M 138 422.5 L 1047 422.5" opacity="1"></path><path fill="none" stroke="#e6e6e6" stroke-width="0" stroke-dasharray="none" data-z-index="1" class="highcharts-grid-line" d="M 138 60.5 L 1047 60.5" opacity="1"></path></g><rect fill="none" class="highcharts-plot-border" data-z-index="1" stroke="#cccccc" stroke-width="0" x="138" y="60" width="909" height="362" aria-hidden="true"></rect><g class="highcharts-grid highcharts-yaxis-grid" data-z-index="1" aria-hidden="true"><path fill="none" stroke="#e6e6e6" stroke-width="1" stroke-dasharray="none" data-z-index="1" class="highcharts-grid-line" d="M 138.5 60 L 138.5 422" opacity="1"></path><path fill="none" stroke="#e6e6e6" stroke-width="1" stroke-dasharray="none" data-z-index="1" class="highcharts-grid-line" d="M 193.5 60 L 193.5 422" opacity="1"></path><path fill="none" stroke="#e6e6e6" stroke-width="1" stroke-dasharray="none" data-z-index="1" class="highcharts-grid-line" d="M 249.5 60 L 249.5 422" opacity="1"></path><path fill="none" stroke="#e6e6e6" stroke-width="1" stroke-dasharray="none" data-z-index="1" class="highcharts-grid-line" d="M 305.5 60 L 305.5 422" opacity="1"></path><path fill="none" stroke="#e6e6e6" stroke-width="1" stroke-dasharray="none" data-z-index="1" class="highcharts-grid-line" d="M 361.5 60 L 361.5 422" opacity="1"></path><path fill="none" stroke="#e6e6e6" stroke-width="1" stroke-dasharray="none" data-z-index="1" class="highcharts-grid-line" d="M 417.5 60 L 417.5 422" opacity="1"></path><path fill="none" stroke="#e6e6e6" stroke-width="1" stroke-dasharray="none" data-z-index="1" class="highcharts-grid-line" d="M 472.5 60 L 472.5 422" opacity="1"></path><path fill="none" stroke="#e6e6e6" stroke-width="1" stroke-dasharray="none" data-z-index="1" class="highcharts-grid-line" d="M 528.5 60 L 528.5 422" opacity="1"></path><path fill="none" stroke="#e6e6e6" stroke-width="1" stroke-dasharray="none" data-z-index="1" class="highcharts-grid-line" d="M 584.5 60 L 584.5 422" opacity="1"></path><path fill="none" stroke="#e6e6e6" stroke-width="1" stroke-dasharray="none" data-z-index="1" class="highcharts-grid-line" d="M 640.5 60 L 640.5 422" opacity="1"></path><path fill="none" stroke="#e6e6e6" stroke-width="1" stroke-dasharray="none" data-z-index="1" class="highcharts-grid-line" d="M 696.5 60 L 696.5 422" opacity="1"></path><path fill="none" stroke="#e6e6e6" stroke-width="1" stroke-dasharray="none" data-z-index="1" class="highcharts-grid-line" d="M 752.5 60 L 752.5 422" opacity="1"></path><path fill="none" stroke="#e6e6e6" stroke-width="1" stroke-dasharray="none" data-z-index="1" class="highcharts-grid-line" d="M 807.5 60 L 807.5 422" opacity="1"></path><path fill="none" stroke="#e6e6e6" stroke-width="1" stroke-dasharray="none" data-z-index="1" class="highcharts-grid-line" d="M 863.5 60 L 863.5 422" opacity="1"></path><path fill="none" stroke="#e6e6e6" stroke-width="1" stroke-dasharray="none" data-z-index="1" class="highcharts-grid-line" d="M 919.5 60 L 919.5 422" opacity="1"></path><path fill="none" stroke="#e6e6e6" stroke-width="1" stroke-dasharray="none" data-z-index="1" class="highcharts-grid-line" d="M 975.5 60 L 975.5 422" opacity="1"></path><path fill="none" stroke="#e6e6e6" stroke-width="1" stroke-dasharray="none" data-z-index="1" class="highcharts-grid-line" d="M 1031.5 60 L 1031.5 422" opacity="1"></path></g><g class="highcharts-axis highcharts-xaxis" data-z-index="2" aria-hidden="true"><path fill="none" class="highcharts-axis-line" stroke="#FFFFFF" stroke-width="1" data-z-index="7" d="M 138.5 60 L 138.5 422"></path></g><g class="highcharts-axis highcharts-yaxis" data-z-index="2" aria-hidden="true"><text x="592.5" data-z-index="7" text-anchor="middle" transform="translate(0,0)" class="highcharts-axis-title" style="font-size: 0.8em; fill: rgb(102, 102, 102);" y="471.50027656555176">Median Duration (ms)</text><path fill="none" class="highcharts-axis-line" stroke="#333333" stroke-width="0" data-z-index="7" d="M 138 422 L 1047 422"></path></g><g class="highcharts-series-group" data-z-index="3" filter="none" aria-hidden="false"><g class="highcharts-series highcharts-series-0 highcharts-bar-series highcharts-color-0" data-z-index="0.1" opacity="1" transform="translate(138,60) rotate(90 273.5 635.5) scale(-1 1)" clip-path="url(#highcharts-5x53uln-203-)" aria-hidden="false"><path fill="#074650" d="M 231.5 51.5 L 312.5 51.5 A 3 3 0 0 1 315.5 54.5 L 315.5 908.5 A 0 0 0 0 1 315.5 908.5 L 228.5 908.5 A 0 0 0 0 1 228.5 908.5 L 228.5 54.5 A 3 3 0 0 1 231.5 51.5 Z" stroke="#ffffff" stroke-width="1" opacity="1" filter="none" class="highcharts-point highcharts-color-0" tabindex="-1" role="img" aria-label="Star Schema, 768.444595312475. Avg(median_duration_ms)." style="outline: none;"></path><path fill="#074650" d="M 50.5 43.5 L 131.5 43.5 A 3 3 0 0 1 134.5 46.5 L 134.5 908.5 A 0 0 0 0 1 134.5 908.5 L 47.5 908.5 A 0 0 0 0 1 47.5 908.5 L 47.5 46.5 A 3 3 0 0 1 50.5 43.5 Z" stroke="#ffffff" stroke-width="1" opacity="1" filter="none" class="highcharts-point highcharts-color-0" tabindex="-1" role="img" aria-label="Unified Star Schema, 775.44008425005. Avg(median_duration_ms)." style="outline: none;"></path></g><g class="highcharts-markers highcharts-series-0 highcharts-bar-series highcharts-color-0" data-z-index="0.1" opacity="1" transform="translate(138,60) scale(1 1)" clip-path="none" aria-hidden="true"></g></g><text x="10" text-anchor="start" class="highcharts-title" data-z-index="4" style="font-size: 14px; font-weight: bold; fill: rgb(51, 51, 51);" text-align="left" y="21" transform-origin="10 17" transform="translate(0,0) scale(1 1)" aria-hidden="true">DAX Benchmark</text><text x="10" class="highcharts-subtitle" data-z-index="4" text-align="left" y="42" text-anchor="start" transform-origin="10 15" transform="translate(0,0) scale(1 1)" style="font-size: 12px; fill: rgb(102, 102, 102);" aria-hidden="true">Excluding P11</text><text x="10" text-anchor="start" class="highcharts-caption" data-z-index="4" style="font-size: 0.8em; fill: rgb(102, 102, 102);" text-align="left" y="489" transform-origin="10 15" transform="translate(0,0) scale(1 1)" aria-hidden="true"></text><g class="highcharts-plot-lines-5" data-z-index="5" aria-hidden="true"><path fill="none" class="highcharts-plot-line " stroke="#333333" stroke-width="1" d="M 138.5 60 L 138.5 422"></path></g><g class="highcharts-datalabels-group" data-z-index="6" aria-hidden="true"></g><g class="highcharts-axis-labels highcharts-xaxis-labels" data-z-index="7" aria-hidden="true"><text x="123" text-anchor="end" transform="translate(0,0)" style="cursor: default; font-size: 0.8em; fill: rgb(51, 51, 51);" y="154" opacity="1">Star Schema</text><text x="123" text-anchor="end" transform="translate(0,0)" style="cursor: default; font-size: 0.8em; fill: rgb(51, 51, 51);" y="335" opacity="1">Unified Star Schema</text></g><g class="highcharts-axis-labels highcharts-yaxis-labels" data-z-index="7" aria-hidden="true"><text x="138" text-anchor="middle" transform="translate(0,0)" style="cursor: default; font-size: 0.8em; fill: rgb(51, 51, 51);" y="449" opacity="1">0</text><text x="193.82083666409" text-anchor="middle" transform="translate(0,0)" style="cursor: default; font-size: 0.8em; fill: rgb(51, 51, 51);" y="449" opacity="1">50</text><text x="249.64167332819" text-anchor="middle" transform="translate(0,0)" style="cursor: default; font-size: 0.8em; fill: rgb(51, 51, 51);" y="449" opacity="1">100</text><text x="305.46250999229" text-anchor="middle" transform="translate(0,0)" style="cursor: default; font-size: 0.8em; fill: rgb(51, 51, 51);" y="449" opacity="1">150</text><text x="361.28334665638" text-anchor="middle" transform="translate(0,0)" style="cursor: default; font-size: 0.8em; fill: rgb(51, 51, 51);" y="449" opacity="1">200</text><text x="417.10418332048" text-anchor="middle" transform="translate(0,0)" style="cursor: default; font-size: 0.8em; fill: rgb(51, 51, 51);" y="449" opacity="1">250</text><text x="472.92501998457" text-anchor="middle" transform="translate(0,0)" style="cursor: default; font-size: 0.8em; fill: rgb(51, 51, 51);" y="449" opacity="1">300</text><text x="528.74585664867" text-anchor="middle" transform="translate(0,0)" style="cursor: default; font-size: 0.8em; fill: rgb(51, 51, 51);" y="449" opacity="1">350</text><text x="584.56669331276" text-anchor="middle" transform="translate(0,0)" style="cursor: default; font-size: 0.8em; fill: rgb(51, 51, 51);" y="449" opacity="1">400</text><text x="640.38752997686" text-anchor="middle" transform="translate(0,0)" style="cursor: default; font-size: 0.8em; fill: rgb(51, 51, 51);" y="449" opacity="1">450</text><text x="696.20836664095" text-anchor="middle" transform="translate(0,0)" style="cursor: default; font-size: 0.8em; fill: rgb(51, 51, 51);" y="449" opacity="1">500</text><text x="752.02920330505" text-anchor="middle" transform="translate(0,0)" style="cursor: default; font-size: 0.8em; fill: rgb(51, 51, 51);" y="449" opacity="1">550</text><text x="807.85003996914" text-anchor="middle" transform="translate(0,0)" style="cursor: default; font-size: 0.8em; fill: rgb(51, 51, 51);" y="449" opacity="1">600</text><text x="863.67087663324" text-anchor="middle" transform="translate(0,0)" style="cursor: default; font-size: 0.8em; fill: rgb(51, 51, 51);" y="449" opacity="1">650</text><text x="919.49171329733" text-anchor="middle" transform="translate(0,0)" style="cursor: default; font-size: 0.8em; fill: rgb(51, 51, 51);" y="449" opacity="1">700</text><text x="975.31254996143" text-anchor="middle" transform="translate(0,0)" style="cursor: default; font-size: 0.8em; fill: rgb(51, 51, 51);" y="449" opacity="1">750</text><text x="1031.1333866255" text-anchor="middle" transform="translate(0,0)" style="cursor: default; font-size: 0.8em; fill: rgb(51, 51, 51);" y="449" opacity="1">800</text></g><g class="highcharts-control-points" data-z-index="99" clip-path="url(#highcharts-5x53uln-204-)" aria-hidden="true"></g></svg>