<svg xmlns:xlink="http://www.w3.org/1999/xlink" version="1.1" class="highcharts-root" style="font-family: -apple-system, BlinkMacSystemFont, &quot;Segoe UI&quot;, Roboto, Helvetica, Arial, &quot;Apple Color Emoji&quot;, &quot;Segoe UI Emoji&quot;, &quot;Segoe UI Symbol&quot;, sans-serif; font-size: 1rem;" xmlns="http://www.w3.org/2000/svg" width="1057" height="492" viewBox="0 0 1057 492" aria-label="Interactive chart" aria-hidden="false"><desc aria-hidden="true">Created with Highcharts 12.3.0</desc><defs aria-hidden="true"><filter id="highcharts-drop-shadow-185"><feDropShadow dx="1" dy="1" flood-color="#000000" flood-opacity="0.75" stdDeviation="2.5"></feDropShadow></filter><clipPath id="highcharts-2rqi4w5-22189-"><rect x="0" y="0" width="320" height="783" fill="none"></rect></clipPath><filter id="highcharts-drop-shadow-185-offsetx--1-offsety--1"><feDropShadow dx="-1" dy="-1" flood-color="#000000" flood-opacity="0.75" stdDeviation="2.5"></feDropShadow></filter><clipPath id="highcharts-2rqi4w5-22199-"><rect x="263" y="102" width="784" height="320" fill="none"></rect></clipPath></defs><rect fill="#ffffff" class="highcharts-background" filter="none" x="0" y="0" width="1057" height="492" rx="0" ry="0" aria-hidden="true"></rect><rect fill="none" class="highcharts-plot-background" x="263" y="102" width="784" height="320" filter="none" aria-hidden="true"></rect><g class="highcharts-pane-group" data-z-index="0" aria-hidden="true"></g><g class="highcharts-grid highcharts-xaxis-grid" data-z-index="1" aria-hidden="true"><path fill="none" stroke="#e6e6e6" stroke-width="0" stroke-dasharray="none" data-z-index="1" class="highcharts-grid-line" d="M 263 137.5 L 1047 137.5" opacity="1"></path><path fill="none" stroke="#e6e6e6" stroke-width="0" stroke-dasharray="none" data-z-index="1" class="highcharts-grid-line" d="M 263 173.5 L 1047 173.5" opacity="1"></path><path fill="none" stroke="#e6e6e6" stroke-width="0" stroke-dasharray="none" data-z-index="1" class="highcharts-grid-line" d="M 263 208.5 L 1047 208.5" opacity="1"></path><path fill="none" stroke="#e6e6e6" stroke-width="0" stroke-dasharray="none" data-z-index="1" class="highcharts-grid-line" d="M 263 244.5 L 1047 244.5" opacity="1"></path><path fill="none" stroke="#e6e6e6" stroke-width="0" stroke-dasharray="none" data-z-index="1" class="highcharts-grid-line" d="M 263 279.5 L 1047 279.5" opacity="1"></path><path fill="none" stroke="#e6e6e6" stroke-width="0" stroke-dasharray="none" data-z-index="1" class="highcharts-grid-line" d="M 263 315.5 L 1047 315.5" opacity="1"></path><path fill="none" stroke="#e6e6e6" stroke-width="0" stroke-dasharray="none" data-z-index="1" class="highcharts-grid-line" d="M 263 350.5 L 1047 350.5" opacity="1"></path><path fill="none" stroke="#e6e6e6" stroke-width="0" stroke-dasharray="none" data-z-index="1" class="highcharts-grid-line" d="M 263 386.5 L 1047 386.5" opacity="1"></path><path fill="none" stroke="#e6e6e6" stroke-width="0" stroke-dasharray="none" data-z-index="1" class="highcharts-grid-line" d="M 263 422.5 L 1047 422.5" opacity="1"></path><path fill="none" stroke="#e6e6e6" stroke-width="0" stroke-dasharray="none" data-z-index="1" class="highcharts-grid-line" d="M 263 102.5 L 1047 102.5" opacity="1"></path></g><rect fill="none" class="highcharts-plot-border" data-z-index="1" stroke="#cccccc" stroke-width="0" x="263" y="102" width="784" height="320" aria-hidden="true"></rect><g class="highcharts-grid highcharts-yaxis-grid" data-z-index="1" aria-hidden="true"><path fill="none" stroke="#e6e6e6" stroke-width="1" stroke-dasharray="none" data-z-index="1" class="highcharts-grid-line" d="M 263.5 102 L 263.5 422" opacity="1"></path><path fill="none" stroke="#e6e6e6" stroke-width="1" stroke-dasharray="none" data-z-index="1" class="highcharts-grid-line" d="M 327.5 102 L 327.5 422" opacity="1"></path><path fill="none" stroke="#e6e6e6" stroke-width="1" stroke-dasharray="none" data-z-index="1" class="highcharts-grid-line" d="M 392.5 102 L 392.5 422" opacity="1"></path><path fill="none" stroke="#e6e6e6" stroke-width="1" stroke-dasharray="none" data-z-index="1" class="highcharts-grid-line" d="M 457.5 102 L 457.5 422" opacity="1"></path><path fill="none" stroke="#e6e6e6" stroke-width="1" stroke-dasharray="none" data-z-index="1" class="highcharts-grid-line" d="M 522.5 102 L 522.5 422" opacity="1"></path><path fill="none" stroke="#e6e6e6" stroke-width="1" stroke-dasharray="none" data-z-index="1" class="highcharts-grid-line" d="M 587.5 102 L 587.5 422" opacity="1"></path><path fill="none" stroke="#e6e6e6" stroke-width="1" stroke-dasharray="none" data-z-index="1" class="highcharts-grid-line" d="M 652.5 102 L 652.5 422" opacity="1"></path><path fill="none" stroke="#e6e6e6" stroke-width="1" stroke-dasharray="none" data-z-index="1" class="highcharts-grid-line" d="M 717.5 102 L 717.5 422" opacity="1"></path><path fill="none" stroke="#e6e6e6" stroke-width="1" stroke-dasharray="none" data-z-index="1" class="highcharts-grid-line" d="M 782.5 102 L 782.5 422" opacity="1"></path><path fill="none" stroke="#e6e6e6" stroke-width="1" stroke-dasharray="none" data-z-index="1" class="highcharts-grid-line" d="M 846.5 102 L 846.5 422" opacity="1"></path><path fill="none" stroke="#e6e6e6" stroke-width="1" stroke-dasharray="none" data-z-index="1" class="highcharts-grid-line" d="M 911.5 102 L 911.5 422" opacity="1"></path><path fill="none" stroke="#e6e6e6" stroke-width="1" stroke-dasharray="none" data-z-index="1" class="highcharts-grid-line" d="M 976.5 102 L 976.5 422" opacity="1"></path><path fill="none" stroke="#e6e6e6" stroke-width="1" stroke-dasharray="none" data-z-index="1" class="highcharts-grid-line" d="M 1041.5 102 L 1041.5 422" opacity="1"></path></g><g class="highcharts-axis highcharts-xaxis" data-z-index="2" aria-hidden="true"><text x="26.014616012573242" data-z-index="7" text-anchor="middle" transform="translate(0,0) rotate(270 26.014616012573242 262)" class="highcharts-axis-title" style="font-size: 0.8em; fill: rgb(102, 102, 102);" y="262">Query</text><path fill="none" class="highcharts-axis-line" stroke="#FFFFFF" stroke-width="1" data-z-index="7" d="M 263.5 102 L 263.5 422"></path></g><g class="highcharts-axis highcharts-yaxis" data-z-index="2" aria-hidden="true"><text x="655" data-z-index="7" text-anchor="middle" transform="translate(0,0)" class="highcharts-axis-title" style="font-size: 0.8em; fill: rgb(102, 102, 102);" y="471.50027656555176">Median Duration (ms)</text><path fill="none" class="highcharts-axis-line" stroke="#333333" stroke-width="0" data-z-index="7" d="M 263 422 L 1047 422"></path></g><g class="highcharts-series-group" data-z-index="3" filter="none" aria-hidden="false"><g class="highcharts-series highcharts-series-0 highcharts-bar-series highcharts-color-0" data-z-index="0.1" opacity="1" transform="translate(263,102) rotate(90 232 552) scale(-1 1)" clip-path="url(#highcharts-2rqi4w5-22189-)" aria-hidden="false" role="region" tabindex="-1" aria-label="Star Schema, bar series 1 of 2 with 9 bars." style="outline: none;"><path fill="#074650" d="M 306.5 690.5 L 309.5 690.5 A 3 3 0 0 1 312.5 693.5 L 312.5 783.5 A 0 0 0 0 1 312.5 783.5 L 303.5 783.5 A 0 0 0 0 1 303.5 783.5 L 303.5 693.5 A 3 3 0 0 1 306.5 690.5 Z" stroke="#ffffff" stroke-width="1" opacity="1" filter="none" class="highcharts-point highcharts-color-0" tabindex="-1" role="img" aria-label="P10_store_sales_yoy_by_year, 723.3455895. Star Schema." style="outline: none;"></path><path fill="#074650" d="M 270.5 37.5 L 273.5 37.5 A 3 3 0 0 1 276.5 40.5 L 276.5 783.5 A 0 0 0 0 1 276.5 783.5 L 267.5 783.5 A 0 0 0 0 1 267.5 783.5 L 267.5 40.5 A 3 3 0 0 1 270.5 37.5 Z" stroke="#ffffff" stroke-width="1" opacity="1" filter="none" class="highcharts-point highcharts-color-0" tabindex="-1" role="img" aria-label="P11_distinct_customers_with_orders, 5,754.2353439999. Star Schema." style="outline: none;"></path><path fill="#074650" d="M 235.5 678.5 L 238.5 678.5 A 3 3 0 0 1 241.5 681.5 L 241.5 783.5 A 0 0 0 0 1 241.5 783.5 L 232.5 783.5 A 0 0 0 0 1 232.5 783.5 L 232.5 681.5 A 3 3 0 0 1 235.5 678.5 Z" stroke="#ffffff" stroke-width="1" opacity="1" filter="none" class="highcharts-point highcharts-color-0" tabindex="-1" role="img" aria-label="P1_store_sales_by_year, 812.7541140002. Star Schema." style="outline: none;"></path><path fill="#074650" d="M 199.5 690.5 L 202.5 690.5 A 3 3 0 0 1 205.5 693.5 L 205.5 783.5 A 0 0 0 0 1 205.5 783.5 L 196.5 783.5 A 0 0 0 0 1 196.5 783.5 L 196.5 693.5 A 3 3 0 0 1 199.5 690.5 Z" stroke="#ffffff" stroke-width="1" opacity="1" filter="none" class="highcharts-point highcharts-color-0" tabindex="-1" role="img" aria-label="P2_store_sales_by_year_category, 718.4715915. Star Schema." style="outline: none;"></path><path fill="#074650" d="M 164.5 674.5 L 167.5 674.5 A 3 3 0 0 1 170.5 677.5 L 170.5 783.5 A 0 0 0 0 1 170.5 783.5 L 161.5 783.5 A 0 0 0 0 1 161.5 783.5 L 161.5 677.5 A 3 3 0 0 1 164.5 674.5 Z" stroke="#ffffff" stroke-width="1" opacity="1" filter="none" class="highcharts-point highcharts-color-0" tabindex="-1" role="img" aria-label="P3_store_sales_many_groups, 844.0163434998. Star Schema." style="outline: none;"></path><path fill="#074650" d="M 128.5 659.5 L 131.5 659.5 A 3 3 0 0 1 134.5 662.5 L 134.5 783.5 A 0 0 0 0 1 134.5 783.5 L 125.5 783.5 A 0 0 0 0 1 125.5 783.5 L 125.5 662.5 A 3 3 0 0 1 128.5 659.5 Z" stroke="#ffffff" stroke-width="1" opacity="1" filter="none" class="highcharts-point highcharts-color-0" tabindex="-1" role="img" aria-label="P4_top100_items_store_sales_2002, 956.2718035002. Star Schema." style="outline: none;"></path><path fill="#074650" d="M 92.5 692.5 L 95.5 692.5 A 3 3 0 0 1 98.5 695.5 L 98.5 783.5 A 0 0 0 0 1 98.5 783.5 L 89.5 783.5 A 0 0 0 0 1 89.5 783.5 L 89.5 695.5 A 3 3 0 0 1 92.5 692.5 Z" stroke="#ffffff" stroke-width="1" opacity="1" filter="none" class="highcharts-point highcharts-color-0" tabindex="-1" role="img" aria-label="P5_net_store_sales_by_month, 704.9605554998. Star Schema." style="outline: none;"></path><path fill="#074650" d="M 57.5 694.5 L 60.5 694.5 A 3 3 0 0 1 63.5 697.5 L 63.5 783.5 A 0 0 0 0 1 63.5 783.5 L 54.5 783.5 A 0 0 0 0 1 54.5 783.5 L 54.5 697.5 A 3 3 0 0 1 57.5 694.5 Z" stroke="#ffffff" stroke-width="1" opacity="1" filter="none" class="highcharts-point highcharts-color-0" tabindex="-1" role="img" aria-label="P7_total_sales_all_channels_by_year, 688.4478415. Star Schema." style="outline: none;"></path><path fill="#074650" d="M 21.5 693.5 L 24.5 693.5 A 3 3 0 0 1 27.5 696.5 L 27.5 783.5 A 0 0 0 0 1 27.5 783.5 L 18.5 783.5 A 0 0 0 0 1 18.5 783.5 L 18.5 696.5 A 3 3 0 0 1 21.5 693.5 Z" stroke="#ffffff" stroke-width="1" opacity="1" filter="none" class="highcharts-point highcharts-color-0" tabindex="-1" role="img" aria-label="P9_inventory_wh_category_year_2002, 699.2889234998. Star Schema." style="outline: none;"></path></g><g class="highcharts-markers highcharts-series-0 highcharts-bar-series highcharts-color-0" data-z-index="0.1" opacity="1" transform="translate(263,102) scale(1 1)" clip-path="none" aria-hidden="true"></g><g class="highcharts-series highcharts-series-1 highcharts-bar-series highcharts-color-1" data-z-index="0.1" opacity="1" transform="translate(263,102) rotate(90 232 552) scale(-1 1)" clip-path="url(#highcharts-2rqi4w5-22189-)" aria-hidden="false" role="region" tabindex="-1" aria-label="Unified Star Schema, bar series 2 of 2 with 9 bars." style="outline: none;"><path fill="#009292" d="M 295.5 689.5 L 298.5 689.5 A 3 3 0 0 1 301.5 692.5 L 301.5 783.5 A 0 0 0 0 1 301.5 783.5 L 292.5 783.5 A 0 0 0 0 1 292.5 783.5 L 292.5 692.5 A 3 3 0 0 1 295.5 689.5 Z" stroke="#ffffff" stroke-width="1" opacity="1" filter="none" class="highcharts-point highcharts-color-1" tabindex="-1" role="img" aria-label="P10_store_sales_yoy_by_year, 730.3458620004. Unified Star Schema." style="outline: none;"></path><path fill="#009292" d="M 260.5 693.5 L 263.5 693.5 A 3 3 0 0 1 266.5 696.5 L 266.5 783.5 A 0 0 0 0 1 266.5 783.5 L 257.5 783.5 A 0 0 0 0 1 257.5 783.5 L 257.5 696.5 A 3 3 0 0 1 260.5 693.5 Z" stroke="#ffffff" stroke-width="1" opacity="1" filter="none" class="highcharts-point highcharts-color-1" tabindex="-1" role="img" aria-label="P11_distinct_customers_with_orders, 697.6696799998. Unified Star Schema." style="outline: none;"></path><path fill="#009292" d="M 224.5 688.5 L 227.5 688.5 A 3 3 0 0 1 230.5 691.5 L 230.5 783.5 A 0 0 0 0 1 230.5 783.5 L 221.5 783.5 A 0 0 0 0 1 221.5 783.5 L 221.5 691.5 A 3 3 0 0 1 224.5 688.5 Z" stroke="#ffffff" stroke-width="1" opacity="1" filter="none" class="highcharts-point highcharts-color-1" tabindex="-1" role="img" aria-label="P1_store_sales_by_year, 738.0701165. Unified Star Schema." style="outline: none;"></path><path fill="#009292" d="M 188.5 695.5 L 191.5 695.5 A 3 3 0 0 1 194.5 698.5 L 194.5 783.5 A 0 0 0 0 1 194.5 783.5 L 185.5 783.5 A 0 0 0 0 1 185.5 783.5 L 185.5 698.5 A 3 3 0 0 1 188.5 695.5 Z" stroke="#ffffff" stroke-width="1" opacity="1" filter="none" class="highcharts-point highcharts-color-1" tabindex="-1" role="img" aria-label="P2_store_sales_by_year_category, 679.1677220003. Unified Star Schema." style="outline: none;"></path><path fill="#009292" d="M 153.5 665.5 L 156.5 665.5 A 3 3 0 0 1 159.5 668.5 L 159.5 783.5 A 0 0 0 0 1 159.5 783.5 L 150.5 783.5 A 0 0 0 0 1 150.5 783.5 L 150.5 668.5 A 3 3 0 0 1 153.5 665.5 Z" stroke="#ffffff" stroke-width="1" opacity="1" filter="none" class="highcharts-point highcharts-color-1" tabindex="-1" role="img" aria-label="P3_store_sales_many_groups, 910.8423614998. Unified Star Schema." style="outline: none;"></path><path fill="#009292" d="M 117.5 652.5 L 120.5 652.5 A 3 3 0 0 1 123.5 655.5 L 123.5 783.5 A 0 0 0 0 1 123.5 783.5 L 114.5 783.5 A 0 0 0 0 1 114.5 783.5 L 114.5 655.5 A 3 3 0 0 1 117.5 652.5 Z" stroke="#ffffff" stroke-width="1" opacity="1" filter="none" class="highcharts-point highcharts-color-1" tabindex="-1" role="img" aria-label="P4_top100_items_store_sales_2002, 1,012.0152110001. Unified Star Schema." style="outline: none;"></path><path fill="#009292" d="M 82.5 690.5 L 85.5 690.5 A 3 3 0 0 1 88.5 693.5 L 88.5 783.5 A 0 0 0 0 1 88.5 783.5 L 79.5 783.5 A 0 0 0 0 1 79.5 783.5 L 79.5 693.5 A 3 3 0 0 1 82.5 690.5 Z" stroke="#ffffff" stroke-width="1" opacity="1" filter="none" class="highcharts-point highcharts-color-1" tabindex="-1" role="img" aria-label="P5_net_store_sales_by_month, 721.9645215. Unified Star Schema." style="outline: none;"></path><path fill="#009292" d="M 46.5 694.5 L 49.5 694.5 A 3 3 0 0 1 52.5 697.5 L 52.5 783.5 A 0 0 0 0 1 52.5 783.5 L 43.5 783.5 A 0 0 0 0 1 43.5 783.5 L 43.5 697.5 A 3 3 0 0 1 46.5 694.5 Z" stroke="#ffffff" stroke-width="1" opacity="1" filter="none" class="highcharts-point highcharts-color-1" tabindex="-1" role="img" aria-label="P7_total_sales_all_channels_by_year, 693.0912079997. Unified Star Schema." style="outline: none;"></path><path fill="#009292" d="M 11.5 690.5 L 14.5 690.5 A 3 3 0 0 1 17.5 693.5 L 17.5 783.5 A 0 0 0 0 1 17.5 783.5 L 8.5 783.5 A 0 0 0 0 1 8.5 783.5 L 8.5 693.5 A 3 3 0 0 1 11.5 690.5 Z" stroke="#ffffff" stroke-width="1" opacity="1" filter="none" class="highcharts-point highcharts-color-1" tabindex="-1" role="img" aria-label="P9_inventory_wh_category_year_2002, 718.0236715001. Unified Star Schema." style="outline: none;"></path></g><g class="highcharts-markers highcharts-series-1 highcharts-bar-series highcharts-color-1" data-z-index="0.1" opacity="1" transform="translate(263,102) scale(1 1)" clip-path="none" aria-hidden="true"></g></g><text x="10" text-anchor="start" class="highcharts-title" data-z-index="4" style="font-size: 14px; font-weight: bold; fill: rgb(51, 51, 51);" text-align="left" y="21" transform-origin="10 17" transform="translate(0,0) scale(1 1)" aria-hidden="true">DAX Benchmark</text><text x="10" class="highcharts-subtitle" data-z-index="4" text-align="left" y="42" text-anchor="start" transform-origin="10 15" transform="translate(0,0) scale(1 1)" style="font-size: 12px; fill: rgb(102, 102, 102);" aria-hidden="true">By Query</text><text x="10" text-anchor="start" class="highcharts-caption" data-z-index="4" style="font-size: 0.8em; fill: rgb(102, 102, 102);" text-align="left" y="489" transform-origin="10 15" transform="translate(0,0) scale(1 1)" aria-hidden="true"></text><g class="highcharts-plot-lines-5" data-z-index="5" aria-hidden="true"><path fill="none" class="highcharts-plot-line " stroke="#333333" stroke-width="1" d="M 263.5 102 L 263.5 422"></path></g><g class="highcharts-datalabels-group" data-z-index="6" aria-hidden="true"></g><g class="highcharts-legend highcharts-no-tooltip" data-z-index="7" text-align="center" transform="translate(398,60)" aria-hidden="true"><rect fill="none" class="highcharts-legend-box" rx="0" ry="0" stroke="#999999" stroke-width="0" filter="none" x="0" y="0" width="261" height="30"></rect><g data-z-index="1"><g><g class="highcharts-legend-item highcharts-bar-series highcharts-color-0 highcharts-series-0" data-z-index="1" transform="translate(8,3)"><text x="21" text-anchor="start" data-z-index="2" style="cursor: pointer; font-size: 0.8em; text-decoration: none; fill: rgb(51, 51, 51);" y="17">Star Schema</text><rect x="2" y="6" rx="6" ry="6" width="12" height="12" fill="#074650" class="highcharts-point" data-z-index="3"></rect></g><g class="highcharts-legend-item highcharts-bar-series highcharts-color-1 highcharts-series-1" data-z-index="1" transform="translate(118.35005950927734,3)"><text x="21" y="17" text-anchor="start" data-z-index="2" style="cursor: pointer; font-size: 0.8em; text-decoration: none; fill: rgb(51, 51, 51);">Unified Star Schema</text><rect x="2" y="6" rx="6" ry="6" width="12" height="12" fill="#009292" class="highcharts-point" data-z-index="3"></rect></g></g></g></g><g class="highcharts-axis-labels highcharts-xaxis-labels" data-z-index="7" aria-hidden="true"><text x="248" text-anchor="end" transform="translate(0,0)" style="cursor: default; font-size: 0.8em; fill: rgb(51, 51, 51);" y="123" opacity="1">P10_store_sales_yoy_by_year</text><text x="248" text-anchor="end" transform="translate(0,0)" style="cursor: default; font-size: 0.8em; fill: rgb(51, 51, 51);" y="159" opacity="1">P11_distinct_customers_with_orders</text><text x="248" text-anchor="end" transform="translate(0,0)" style="cursor: default; font-size: 0.8em; fill: rgb(51, 51, 51);" y="194" opacity="1">P1_store_sales_by_year</text><text x="248" text-anchor="end" transform="translate(0,0)" style="cursor: default; font-size: 0.8em; fill: rgb(51, 51, 51);" y="230" opacity="1">P2_store_sales_by_year_category</text><text x="248" text-anchor="end" transform="translate(0,0)" style="cursor: default; font-size: 0.8em; fill: rgb(51, 51, 51);" y="265" opacity="1">P3_store_sales_many_groups</text><text x="248" text-anchor="end" transform="translate(0,0)" style="cursor: default; font-size: 0.8em; fill: rgb(51, 51, 51);" y="301" opacity="1">P4_top100_items_store_sales_2002</text><text x="248" text-anchor="end" transform="translate(0,0)" style="cursor: default; font-size: 0.8em; fill: rgb(51, 51, 51);" y="336" opacity="1">P5_net_store_sales_by_month</text><text x="248" text-anchor="end" transform="translate(0,0)" style="cursor: default; font-size: 0.8em; fill: rgb(51, 51, 51);" y="372" opacity="1">P7_total_sales_all_channels_by_year</text><text x="248" text-anchor="end" transform="translate(0,0)" style="cursor: default; font-size: 0.8em; fill: rgb(51, 51, 51);" y="407" opacity="1">P9_inventory_wh_category_year_2002</text></g><g class="highcharts-axis-labels highcharts-yaxis-labels" data-z-index="7" aria-hidden="true"><text x="263" text-anchor="middle" transform="translate(0,0)" style="cursor: default; font-size: 0.8em; fill: rgb(51, 51, 51);" y="449" opacity="1">0</text><text x="327.87974700628" text-anchor="middle" transform="translate(0,0)" style="cursor: default; font-size: 0.8em; fill: rgb(51, 51, 51);" y="449" opacity="1">500</text><text x="392.75949401257" text-anchor="middle" transform="translate(0,0)" style="cursor: default; font-size: 0.8em; fill: rgb(51, 51, 51);" y="449" opacity="1">1000</text><text x="457.63924101885" text-anchor="middle" transform="translate(0,0)" style="cursor: default; font-size: 0.8em; fill: rgb(51, 51, 51);" y="449" opacity="1">1500</text><text x="522.51898802514" text-anchor="middle" transform="translate(0,0)" style="cursor: default; font-size: 0.8em; fill: rgb(51, 51, 51);" y="449" opacity="1">2000</text><text x="587.39873503142" text-anchor="middle" transform="translate(0,0)" style="cursor: default; font-size: 0.8em; fill: rgb(51, 51, 51);" y="449" opacity="1">2500</text><text x="652.27848203771" text-anchor="middle" transform="translate(0,0)" style="cursor: default; font-size: 0.8em; fill: rgb(51, 51, 51);" y="449" opacity="1">3000</text><text x="717.15822904399" text-anchor="middle" transform="translate(0,0)" style="cursor: default; font-size: 0.8em; fill: rgb(51, 51, 51);" y="449" opacity="1">3500</text><text x="782.03797605028" text-anchor="middle" transform="translate(0,0)" style="cursor: default; font-size: 0.8em; fill: rgb(51, 51, 51);" y="449" opacity="1">4000</text><text x="846.91772305656" text-anchor="middle" transform="translate(0,0)" style="cursor: default; font-size: 0.8em; fill: rgb(51, 51, 51);" y="449" opacity="1">4500</text><text x="911.79747006284" text-anchor="middle" transform="translate(0,0)" style="cursor: default; font-size: 0.8em; fill: rgb(51, 51, 51);" y="449" opacity="1">5000</text><text x="976.67721706913" text-anchor="middle" transform="translate(0,0)" style="cursor: default; font-size: 0.8em; fill: rgb(51, 51, 51);" y="449" opacity="1">5500</text><text x="1033.2042083740234" text-anchor="middle" transform="translate(0,0)" style="cursor: default; font-size: 0.8em; fill: rgb(51, 51, 51);" y="449" opacity="1">6000</text></g><g class="highcharts-control-points" data-z-index="99" clip-path="url(#highcharts-2rqi4w5-22199-)" aria-hidden="true"></g></svg>